{
    "asset": {
        "version": "2.0",
        "generator": "Open Asset Import Library (assimp v5.0.5eb040c7)"
    },
    "accessors": [
        {
            "bufferView": 0,
            "byteOffset": 0,
            "componentType": 5126,
            "count": 228,
            "type": "VEC3",
            "max": [
                159.5,
                138.56407165527345,
                500.0
            ],
            "min": [
                -159.5,
                -138.56407165527345,
                2.0
            ]
        },
        {
            "bufferView": 1,
            "byteOffset": 0,
            "componentType": 5126,
            "count": 228,
            "type": "VEC3",
            "max": [
                0.9979603290557861,
                0.9957813620567322,
                0.9931880235671997
            ],
            "min": [
                -0.9979603886604309,
                -0.9957811236381531,
                -0.9931883811950684
            ]
        },
        {
            "bufferView": 2,
            "byteOffset": 0,
            "componentType": 5125,
            "count": 1356,
            "type": "SCALAR",
            "max": [
                227
            ],
            "min": [
                0
            ]
        },
        {
            "bufferView": 3,
            "byteOffset": 0,
            "componentType": 5126,
            "count": 216,
            "type": "VEC3",
            "max": [
                157.69444274902345,
                136.57843017578126,
                2.0
            ],
            "min": [
                -157.68675231933595,
                -136.54974365234376,
                0.0
            ]
        },
        {
            "bufferView": 4,
            "byteOffset": 0,
            "componentType": 5126,
            "count": 216,
            "type": "VEC3",
            "max": [
                0.8660255074501038,
                1.0,
                1.0
            ],
            "min": [
                -0.8660256266593933,
                -1.0,
                -1.0
            ]
        },
        {
            "bufferView": 5,
            "byteOffset": 0,
            "componentType": 5125,
            "count": 360,
            "type": "SCALAR",
            "max": [
                215
            ],
            "min": [
                0
            ]
        }
    ],
    "buffers": [
        {
            "byteLength": 17520,
            "uri": "result.bin"
        }
    ],
    "bufferViews": [
        {
            "buffer": 0,
            "byteOffset": 0,
            "byteLength": 2736,
            "target": 34962
        },
        {
            "buffer": 0,
            "byteOffset": 2736,
            "byteLength": 2736,
            "target": 34962
        },
        {
            "buffer": 0,
            "byteOffset": 5472,
            "byteLength": 5424,
            "target": 34963
        },
        {
            "buffer": 0,
            "byteOffset": 10896,
            "byteLength": 2592,
            "target": 34962
        },
        {
            "buffer": 0,
            "byteOffset": 13488,
            "byteLength": 2592,
            "target": 34962
        },
        {
            "buffer": 0,
            "byteOffset": 16080,
            "byteLength": 1440,
            "target": 34963
        }
    ],
    "materials": [
        {
            "name": "Material #2145435649",
            "pbrMetallicRoughness": {
                "baseColorFactor": [
                    0.5921568870544434,
                    0.5921568870544434,
                    0.5921568870544434,
                    1.0
                ],
                "metallicFactor": 0.0,
                "roughnessFactor": 0.7470178008079529
            }
        },
        {
            "name": "Material #2145435648",
            "pbrMetallicRoughness": {
                "baseColorFactor": [
                    0.0,
                    0.0,
                    0.0,
                    1.0
                ],
                "metallicFactor": 0.0,
                "roughnessFactor": 0.9552786350250244
            }
        }
    ],
    "meshes": [
        {
            "name": "Cylinder004",
            "primitives": [
                {
                    "mode": 4,
                    "material": 0,
                    "indices": 2,
                    "attributes": {
                        "POSITION": 0,
                        "NORMAL": 1
                    }
                }
            ]
        },
        {
            "name": "Line009",
            "primitives": [
                {
                    "mode": 4,
                    "material": 1,
                    "indices": 5,
                    "attributes": {
                        "POSITION": 3,
                        "NORMAL": 4
                    }
                }
            ]
        }
    ],
    "nodes": [
        {
            "name": "RootNode",
            "children": [
                1
            ]
        },
        {
            "name": "Group1871014903",
            "matrix": [
                1.0,
                0.0,
                0.0,
                0.0,
                0.0,
                1.0,
                0.0,
                0.0,
                0.0,
                0.0,
                1.0,
                0.0,
                1.1641532182693482e-10,
                0.0,
                250.0,
                1.0
            ],
            "children": [
                2,
                3
            ]
        },
        {
            "name": "Cylinder004",
            "matrix": [
                1.0,
                0.0,
                0.0,
                0.0,
                0.0,
                1.0,
                0.0,
                0.0,
                0.0,
                0.0,
                1.0,
                0.0,
                0.0,
                0.0,
                -250.0,
                1.0
            ],
            "mesh": 0
        },
        {
            "name": "Line009",
            "matrix": [
                1.0,
                0.0,
                0.0,
                0.0,
                0.0,
                1.0,
                0.0,
                0.0,
                0.0,
                0.0,
                1.0,
                0.0,
                -0.000002543131586207892,
                -0.000007417536835419014,
                -250.0,
                1.0
            ],
            "mesh": 1
        }
    ],
    "scenes": [
        {
            "nodes": [
                0
            ]
        }
    ],
    "scene": 0
}